<mxfile host="app.diagrams.net" modified="2024-06-07T09:37:17.331Z" agent="Mozilla/5.0 (Windows NT 10.0; Win64; x64) AppleWebKit/537.36 (KHTML, like Gecko) Chrome/125.0.0.0 Safari/537.36" etag="D4NvmXXM-Qug1MUj_YQd" version="24.3.1" type="device">
  <diagram id="R2lEEEUBdFMjLlhIrx00" name="Page-1">
    <mxGraphModel dx="1047" dy="1381" grid="1" gridSize="10" guides="1" tooltips="1" connect="1" arrows="1" fold="1" page="0" pageScale="1" pageWidth="850" pageHeight="1100" math="0" shadow="0" extFonts="Permanent Marker^https://fonts.googleapis.com/css?family=Permanent+Marker">
      <root>
        <mxCell id="0" />
        <mxCell id="1" parent="0" />
        <mxCell id="dsP2pBHvKVDD0rXbexnV-9" value="User Auth" style="shape=providedRequiredInterface;html=1;verticalLabelPosition=bottom;sketch=0;rotation=0;flipV=0;flipH=1;" vertex="1" parent="1">
          <mxGeometry x="1180" y="20" width="20" height="20" as="geometry" />
        </mxCell>
        <mxCell id="dsP2pBHvKVDD0rXbexnV-15" value=":User" style="shape=module;align=left;spacingLeft=20;align=center;verticalAlign=top;whiteSpace=wrap;html=1;" vertex="1" parent="1">
          <mxGeometry x="1240" y="-25" width="80" height="50" as="geometry" />
        </mxCell>
        <mxCell id="dsP2pBHvKVDD0rXbexnV-20" value="Get User Data" style="shape=providedRequiredInterface;html=1;verticalLabelPosition=bottom;sketch=0;rotation=0;flipV=0;flipH=1;" vertex="1" parent="1">
          <mxGeometry x="1180" y="-30" width="20" height="20" as="geometry" />
        </mxCell>
        <mxCell id="dsP2pBHvKVDD0rXbexnV-21" style="edgeStyle=orthogonalEdgeStyle;rounded=0;orthogonalLoop=1;jettySize=auto;html=1;exitX=0;exitY=0.5;exitDx=0;exitDy=0;exitPerimeter=0;entryX=0;entryY=0;entryDx=0;entryDy=15;entryPerimeter=0;endArrow=none;endFill=0;" edge="1" parent="1" source="dsP2pBHvKVDD0rXbexnV-20" target="dsP2pBHvKVDD0rXbexnV-15">
          <mxGeometry relative="1" as="geometry" />
        </mxCell>
        <mxCell id="dsP2pBHvKVDD0rXbexnV-23" style="edgeStyle=orthogonalEdgeStyle;rounded=0;orthogonalLoop=1;jettySize=auto;html=1;exitX=0;exitY=0.5;exitDx=0;exitDy=0;exitPerimeter=0;entryX=0;entryY=0;entryDx=0;entryDy=35;entryPerimeter=0;endArrow=none;endFill=0;" edge="1" parent="1" source="dsP2pBHvKVDD0rXbexnV-9" target="dsP2pBHvKVDD0rXbexnV-15">
          <mxGeometry relative="1" as="geometry">
            <mxPoint x="960" y="-15" as="sourcePoint" />
            <mxPoint x="1170" y="30" as="targetPoint" />
          </mxGeometry>
        </mxCell>
        <mxCell id="dsP2pBHvKVDD0rXbexnV-27" value=":Calendar" style="shape=module;align=left;spacingLeft=20;align=center;verticalAlign=top;whiteSpace=wrap;html=1;" vertex="1" parent="1">
          <mxGeometry x="420" y="-30" width="90" height="65" as="geometry" />
        </mxCell>
        <mxCell id="dsP2pBHvKVDD0rXbexnV-28" value="Get Events" style="shape=providedRequiredInterface;html=1;verticalLabelPosition=bottom;sketch=0;rotation=0;flipV=0;flipH=1;" vertex="1" parent="1">
          <mxGeometry x="360" y="-25" width="20" height="20" as="geometry" />
        </mxCell>
        <mxCell id="dsP2pBHvKVDD0rXbexnV-29" style="edgeStyle=orthogonalEdgeStyle;rounded=0;orthogonalLoop=1;jettySize=auto;html=1;exitX=0;exitY=0.5;exitDx=0;exitDy=0;exitPerimeter=0;entryX=0;entryY=0;entryDx=0;entryDy=15;entryPerimeter=0;endArrow=none;endFill=0;" edge="1" parent="1" source="dsP2pBHvKVDD0rXbexnV-28" target="dsP2pBHvKVDD0rXbexnV-27">
          <mxGeometry relative="1" as="geometry" />
        </mxCell>
        <mxCell id="dsP2pBHvKVDD0rXbexnV-34" value="Get Grades" style="shape=providedRequiredInterface;html=1;verticalLabelPosition=bottom;sketch=0;rotation=0;flipV=0;flipH=1;" vertex="1" parent="1">
          <mxGeometry x="360" y="125" width="20" height="20" as="geometry" />
        </mxCell>
        <mxCell id="dsP2pBHvKVDD0rXbexnV-35" value=":Grades" style="shape=module;align=left;spacingLeft=20;align=center;verticalAlign=top;whiteSpace=wrap;html=1;" vertex="1" parent="1">
          <mxGeometry x="420" y="80" width="90" height="60" as="geometry" />
        </mxCell>
        <mxCell id="dsP2pBHvKVDD0rXbexnV-36" value="Manage Grades" style="shape=providedRequiredInterface;html=1;verticalLabelPosition=bottom;sketch=0;rotation=0;flipV=0;flipH=1;" vertex="1" parent="1">
          <mxGeometry x="360" y="75" width="20" height="20" as="geometry" />
        </mxCell>
        <mxCell id="dsP2pBHvKVDD0rXbexnV-37" style="edgeStyle=orthogonalEdgeStyle;rounded=0;orthogonalLoop=1;jettySize=auto;html=1;exitX=0;exitY=0.5;exitDx=0;exitDy=0;exitPerimeter=0;entryX=0;entryY=0;entryDx=0;entryDy=15;entryPerimeter=0;endArrow=none;endFill=0;" edge="1" parent="1" source="dsP2pBHvKVDD0rXbexnV-36" target="dsP2pBHvKVDD0rXbexnV-35">
          <mxGeometry relative="1" as="geometry" />
        </mxCell>
        <mxCell id="dsP2pBHvKVDD0rXbexnV-38" style="edgeStyle=orthogonalEdgeStyle;rounded=0;orthogonalLoop=1;jettySize=auto;html=1;exitX=0;exitY=0.5;exitDx=0;exitDy=0;exitPerimeter=0;entryX=0;entryY=0;entryDx=0;entryDy=35;entryPerimeter=0;endArrow=none;endFill=0;" edge="1" parent="1" source="dsP2pBHvKVDD0rXbexnV-34" target="dsP2pBHvKVDD0rXbexnV-35">
          <mxGeometry relative="1" as="geometry">
            <mxPoint x="140" y="90" as="sourcePoint" />
            <mxPoint x="350" y="135" as="targetPoint" />
          </mxGeometry>
        </mxCell>
        <mxCell id="dsP2pBHvKVDD0rXbexnV-39" value="Get Materials" style="shape=providedRequiredInterface;html=1;verticalLabelPosition=bottom;sketch=0;rotation=0;flipV=0;flipH=1;" vertex="1" parent="1">
          <mxGeometry x="630" y="15" width="20" height="20" as="geometry" />
        </mxCell>
        <mxCell id="dsP2pBHvKVDD0rXbexnV-40" value=":Materials" style="shape=module;align=left;spacingLeft=20;align=center;verticalAlign=top;whiteSpace=wrap;html=1;" vertex="1" parent="1">
          <mxGeometry x="690" y="-30" width="90" height="60" as="geometry" />
        </mxCell>
        <mxCell id="dsP2pBHvKVDD0rXbexnV-41" value="Manage Materials" style="shape=providedRequiredInterface;html=1;verticalLabelPosition=bottom;sketch=0;rotation=0;flipV=0;flipH=1;" vertex="1" parent="1">
          <mxGeometry x="630" y="-35" width="20" height="20" as="geometry" />
        </mxCell>
        <mxCell id="dsP2pBHvKVDD0rXbexnV-42" style="edgeStyle=orthogonalEdgeStyle;rounded=0;orthogonalLoop=1;jettySize=auto;html=1;exitX=0;exitY=0.5;exitDx=0;exitDy=0;exitPerimeter=0;entryX=0;entryY=0;entryDx=0;entryDy=15;entryPerimeter=0;endArrow=none;endFill=0;" edge="1" parent="1" source="dsP2pBHvKVDD0rXbexnV-41" target="dsP2pBHvKVDD0rXbexnV-40">
          <mxGeometry relative="1" as="geometry" />
        </mxCell>
        <mxCell id="dsP2pBHvKVDD0rXbexnV-43" style="edgeStyle=orthogonalEdgeStyle;rounded=0;orthogonalLoop=1;jettySize=auto;html=1;exitX=0;exitY=0.5;exitDx=0;exitDy=0;exitPerimeter=0;entryX=0;entryY=0;entryDx=0;entryDy=35;entryPerimeter=0;endArrow=none;endFill=0;" edge="1" parent="1" source="dsP2pBHvKVDD0rXbexnV-39" target="dsP2pBHvKVDD0rXbexnV-40">
          <mxGeometry relative="1" as="geometry">
            <mxPoint x="410" y="-20" as="sourcePoint" />
            <mxPoint x="620" y="25" as="targetPoint" />
          </mxGeometry>
        </mxCell>
        <mxCell id="dsP2pBHvKVDD0rXbexnV-44" value="Get Courses" style="shape=providedRequiredInterface;html=1;verticalLabelPosition=bottom;sketch=0;rotation=0;flipV=0;flipH=1;" vertex="1" parent="1">
          <mxGeometry x="930" y="15" width="20" height="20" as="geometry" />
        </mxCell>
        <mxCell id="dsP2pBHvKVDD0rXbexnV-45" value=":Courses" style="shape=module;align=left;spacingLeft=20;align=center;verticalAlign=top;whiteSpace=wrap;html=1;" vertex="1" parent="1">
          <mxGeometry x="990" y="-30" width="90" height="60" as="geometry" />
        </mxCell>
        <mxCell id="dsP2pBHvKVDD0rXbexnV-46" value="Manage Courses" style="shape=providedRequiredInterface;html=1;verticalLabelPosition=bottom;sketch=0;rotation=0;flipV=0;flipH=1;" vertex="1" parent="1">
          <mxGeometry x="930" y="-35" width="20" height="20" as="geometry" />
        </mxCell>
        <mxCell id="dsP2pBHvKVDD0rXbexnV-47" style="edgeStyle=orthogonalEdgeStyle;rounded=0;orthogonalLoop=1;jettySize=auto;html=1;exitX=0;exitY=0.5;exitDx=0;exitDy=0;exitPerimeter=0;entryX=0;entryY=0;entryDx=0;entryDy=15;entryPerimeter=0;endArrow=none;endFill=0;" edge="1" parent="1" source="dsP2pBHvKVDD0rXbexnV-46" target="dsP2pBHvKVDD0rXbexnV-45">
          <mxGeometry relative="1" as="geometry" />
        </mxCell>
        <mxCell id="dsP2pBHvKVDD0rXbexnV-48" style="edgeStyle=orthogonalEdgeStyle;rounded=0;orthogonalLoop=1;jettySize=auto;html=1;exitX=0;exitY=0.5;exitDx=0;exitDy=0;exitPerimeter=0;entryX=0;entryY=0;entryDx=0;entryDy=35;entryPerimeter=0;endArrow=none;endFill=0;" edge="1" parent="1" source="dsP2pBHvKVDD0rXbexnV-44" target="dsP2pBHvKVDD0rXbexnV-45">
          <mxGeometry relative="1" as="geometry">
            <mxPoint x="710" y="-20" as="sourcePoint" />
            <mxPoint x="920" y="25" as="targetPoint" />
          </mxGeometry>
        </mxCell>
        <mxCell id="dsP2pBHvKVDD0rXbexnV-49" value="Get Exams" style="shape=providedRequiredInterface;html=1;verticalLabelPosition=bottom;sketch=0;rotation=0;flipV=0;flipH=1;" vertex="1" parent="1">
          <mxGeometry x="630" y="135" width="20" height="20" as="geometry" />
        </mxCell>
        <mxCell id="dsP2pBHvKVDD0rXbexnV-50" value=":Exams" style="shape=module;align=left;spacingLeft=20;align=center;verticalAlign=top;whiteSpace=wrap;html=1;" vertex="1" parent="1">
          <mxGeometry x="690" y="90" width="90" height="55" as="geometry" />
        </mxCell>
        <mxCell id="dsP2pBHvKVDD0rXbexnV-51" value="Manage Exams" style="shape=providedRequiredInterface;html=1;verticalLabelPosition=bottom;sketch=0;rotation=0;flipV=0;flipH=1;" vertex="1" parent="1">
          <mxGeometry x="630" y="85" width="20" height="20" as="geometry" />
        </mxCell>
        <mxCell id="dsP2pBHvKVDD0rXbexnV-52" style="edgeStyle=orthogonalEdgeStyle;rounded=0;orthogonalLoop=1;jettySize=auto;html=1;exitX=0;exitY=0.5;exitDx=0;exitDy=0;exitPerimeter=0;entryX=0;entryY=0;entryDx=0;entryDy=15;entryPerimeter=0;endArrow=none;endFill=0;" edge="1" parent="1" source="dsP2pBHvKVDD0rXbexnV-51" target="dsP2pBHvKVDD0rXbexnV-50">
          <mxGeometry relative="1" as="geometry" />
        </mxCell>
        <mxCell id="dsP2pBHvKVDD0rXbexnV-53" style="edgeStyle=orthogonalEdgeStyle;rounded=0;orthogonalLoop=1;jettySize=auto;html=1;exitX=0;exitY=0.5;exitDx=0;exitDy=0;exitPerimeter=0;entryX=0;entryY=0;entryDx=0;entryDy=35;entryPerimeter=0;endArrow=none;endFill=0;" edge="1" parent="1" source="dsP2pBHvKVDD0rXbexnV-49" target="dsP2pBHvKVDD0rXbexnV-50">
          <mxGeometry relative="1" as="geometry">
            <mxPoint x="410" y="100" as="sourcePoint" />
            <mxPoint x="620" y="145" as="targetPoint" />
          </mxGeometry>
        </mxCell>
        <mxCell id="dsP2pBHvKVDD0rXbexnV-59" value="Get Booking Data" style="shape=providedRequiredInterface;html=1;verticalLabelPosition=bottom;sketch=0;rotation=0;flipV=0;flipH=1;" vertex="1" parent="1">
          <mxGeometry x="910" y="130" width="20" height="20" as="geometry" />
        </mxCell>
        <mxCell id="dsP2pBHvKVDD0rXbexnV-60" value=":Room Booking" style="shape=module;align=left;spacingLeft=20;align=center;verticalAlign=top;whiteSpace=wrap;html=1;" vertex="1" parent="1">
          <mxGeometry x="990" y="90" width="90" height="60" as="geometry" />
        </mxCell>
        <mxCell id="dsP2pBHvKVDD0rXbexnV-61" value="Manage Room Booking" style="shape=providedRequiredInterface;html=1;verticalLabelPosition=bottom;sketch=0;rotation=0;flipV=0;flipH=1;" vertex="1" parent="1">
          <mxGeometry x="910" y="80" width="20" height="20" as="geometry" />
        </mxCell>
        <mxCell id="dsP2pBHvKVDD0rXbexnV-62" style="edgeStyle=orthogonalEdgeStyle;rounded=0;orthogonalLoop=1;jettySize=auto;html=1;exitX=0;exitY=0.5;exitDx=0;exitDy=0;exitPerimeter=0;entryX=0;entryY=0;entryDx=0;entryDy=15;entryPerimeter=0;endArrow=none;endFill=0;" edge="1" parent="1" source="dsP2pBHvKVDD0rXbexnV-61" target="dsP2pBHvKVDD0rXbexnV-60">
          <mxGeometry relative="1" as="geometry" />
        </mxCell>
        <mxCell id="dsP2pBHvKVDD0rXbexnV-63" style="edgeStyle=orthogonalEdgeStyle;rounded=0;orthogonalLoop=1;jettySize=auto;html=1;exitX=0;exitY=0.5;exitDx=0;exitDy=0;exitPerimeter=0;entryX=0;entryY=0;entryDx=0;entryDy=35;entryPerimeter=0;endArrow=none;endFill=0;" edge="1" parent="1" source="dsP2pBHvKVDD0rXbexnV-59" target="dsP2pBHvKVDD0rXbexnV-60">
          <mxGeometry relative="1" as="geometry">
            <mxPoint x="690" y="95" as="sourcePoint" />
            <mxPoint x="900" y="140" as="targetPoint" />
          </mxGeometry>
        </mxCell>
        <mxCell id="dsP2pBHvKVDD0rXbexnV-65" style="edgeStyle=orthogonalEdgeStyle;rounded=0;orthogonalLoop=1;jettySize=auto;html=1;entryX=1;entryY=0.5;entryDx=0;entryDy=0;entryPerimeter=0;endArrow=none;endFill=0;exitX=1;exitY=0.25;exitDx=0;exitDy=0;" edge="1" parent="1" source="dsP2pBHvKVDD0rXbexnV-50" target="dsP2pBHvKVDD0rXbexnV-9">
          <mxGeometry relative="1" as="geometry">
            <mxPoint x="770" y="110" as="sourcePoint" />
            <mxPoint x="860" y="110" as="targetPoint" />
            <Array as="points">
              <mxPoint x="780" y="100" />
              <mxPoint x="810" y="100" />
              <mxPoint x="810" y="-60" />
              <mxPoint x="1130" y="-60" />
              <mxPoint x="1130" y="30" />
            </Array>
          </mxGeometry>
        </mxCell>
        <mxCell id="dsP2pBHvKVDD0rXbexnV-66" style="edgeStyle=orthogonalEdgeStyle;rounded=0;orthogonalLoop=1;jettySize=auto;html=1;entryX=1;entryY=0.5;entryDx=0;entryDy=0;entryPerimeter=0;endArrow=none;endFill=0;exitX=1;exitY=0.75;exitDx=0;exitDy=0;" edge="1" parent="1" source="dsP2pBHvKVDD0rXbexnV-50" target="dsP2pBHvKVDD0rXbexnV-44">
          <mxGeometry relative="1" as="geometry">
            <mxPoint x="920" y="305" as="sourcePoint" />
            <mxPoint x="1040" y="470" as="targetPoint" />
            <Array as="points">
              <mxPoint x="780" y="130" />
              <mxPoint x="840" y="130" />
              <mxPoint x="840" y="25" />
            </Array>
          </mxGeometry>
        </mxCell>
        <mxCell id="dsP2pBHvKVDD0rXbexnV-67" style="edgeStyle=orthogonalEdgeStyle;rounded=0;orthogonalLoop=1;jettySize=auto;html=1;entryX=1;entryY=0.5;entryDx=0;entryDy=0;entryPerimeter=0;endArrow=none;endFill=0;exitX=1;exitY=0.5;exitDx=0;exitDy=0;" edge="1" parent="1" source="dsP2pBHvKVDD0rXbexnV-60" target="dsP2pBHvKVDD0rXbexnV-9">
          <mxGeometry relative="1" as="geometry">
            <mxPoint x="1000" y="73.82" as="sourcePoint" />
            <mxPoint x="1090" y="73.82" as="targetPoint" />
          </mxGeometry>
        </mxCell>
        <mxCell id="dsP2pBHvKVDD0rXbexnV-68" style="edgeStyle=orthogonalEdgeStyle;rounded=0;orthogonalLoop=1;jettySize=auto;html=1;entryX=1;entryY=0.5;entryDx=0;entryDy=0;entryPerimeter=0;endArrow=none;endFill=0;exitX=1;exitY=0.5;exitDx=0;exitDy=0;" edge="1" parent="1" source="dsP2pBHvKVDD0rXbexnV-45" target="dsP2pBHvKVDD0rXbexnV-9">
          <mxGeometry relative="1" as="geometry">
            <mxPoint x="1080" y="25" as="sourcePoint" />
            <mxPoint x="1170" y="25" as="targetPoint" />
          </mxGeometry>
        </mxCell>
        <mxCell id="dsP2pBHvKVDD0rXbexnV-69" style="edgeStyle=orthogonalEdgeStyle;rounded=0;orthogonalLoop=1;jettySize=auto;html=1;entryX=1;entryY=0.5;entryDx=0;entryDy=0;entryPerimeter=0;endArrow=none;endFill=0;exitX=1;exitY=0.25;exitDx=0;exitDy=0;" edge="1" parent="1" source="dsP2pBHvKVDD0rXbexnV-40" target="dsP2pBHvKVDD0rXbexnV-44">
          <mxGeometry relative="1" as="geometry">
            <mxPoint x="820" y="39.5" as="sourcePoint" />
            <mxPoint x="1040" y="470" as="targetPoint" />
            <Array as="points">
              <mxPoint x="780" y="-20" />
              <mxPoint x="840" y="-20" />
              <mxPoint x="840" y="25" />
            </Array>
          </mxGeometry>
        </mxCell>
        <mxCell id="dsP2pBHvKVDD0rXbexnV-70" style="edgeStyle=orthogonalEdgeStyle;rounded=0;orthogonalLoop=1;jettySize=auto;html=1;entryX=1;entryY=0.5;entryDx=0;entryDy=0;entryPerimeter=0;endArrow=none;endFill=0;exitX=1;exitY=0.75;exitDx=0;exitDy=0;" edge="1" parent="1" source="dsP2pBHvKVDD0rXbexnV-40" target="dsP2pBHvKVDD0rXbexnV-9">
          <mxGeometry relative="1" as="geometry">
            <mxPoint x="690" y="10" as="sourcePoint" />
            <mxPoint x="1050" y="480" as="targetPoint" />
            <Array as="points">
              <mxPoint x="780" y="10" />
              <mxPoint x="810" y="10" />
              <mxPoint x="810" y="-60" />
              <mxPoint x="1130" y="-60" />
              <mxPoint x="1130" y="30" />
            </Array>
          </mxGeometry>
        </mxCell>
        <mxCell id="dsP2pBHvKVDD0rXbexnV-71" style="edgeStyle=orthogonalEdgeStyle;rounded=0;orthogonalLoop=1;jettySize=auto;html=1;entryX=1;entryY=0.5;entryDx=0;entryDy=0;entryPerimeter=0;endArrow=none;endFill=0;exitX=1;exitY=0.25;exitDx=0;exitDy=0;" edge="1" parent="1" source="dsP2pBHvKVDD0rXbexnV-35" target="dsP2pBHvKVDD0rXbexnV-9">
          <mxGeometry relative="1" as="geometry">
            <mxPoint x="779.43" y="-155" as="sourcePoint" />
            <mxPoint x="909.43" y="105" as="targetPoint" />
            <Array as="points">
              <mxPoint x="580" y="95" />
              <mxPoint x="580" y="-60" />
              <mxPoint x="1130" y="-60" />
              <mxPoint x="1130" y="30" />
            </Array>
          </mxGeometry>
        </mxCell>
        <mxCell id="dsP2pBHvKVDD0rXbexnV-73" style="edgeStyle=orthogonalEdgeStyle;rounded=0;orthogonalLoop=1;jettySize=auto;html=1;endArrow=none;endFill=0;exitX=1;exitY=0.5;exitDx=0;exitDy=0;entryX=1;entryY=0.5;entryDx=0;entryDy=0;entryPerimeter=0;" edge="1" parent="1" source="dsP2pBHvKVDD0rXbexnV-35" target="dsP2pBHvKVDD0rXbexnV-44">
          <mxGeometry relative="1" as="geometry">
            <mxPoint x="600" y="-110" as="sourcePoint" />
            <mxPoint x="700" y="-80" as="targetPoint" />
            <Array as="points">
              <mxPoint x="560" y="110" />
              <mxPoint x="560" y="-80" />
              <mxPoint x="840" y="-80" />
              <mxPoint x="840" y="25" />
            </Array>
          </mxGeometry>
        </mxCell>
        <mxCell id="dsP2pBHvKVDD0rXbexnV-74" style="edgeStyle=orthogonalEdgeStyle;rounded=0;orthogonalLoop=1;jettySize=auto;html=1;endArrow=none;endFill=0;exitX=1;exitY=0.75;exitDx=0;exitDy=0;entryX=1;entryY=0.5;entryDx=0;entryDy=0;entryPerimeter=0;" edge="1" parent="1" source="dsP2pBHvKVDD0rXbexnV-35" target="dsP2pBHvKVDD0rXbexnV-49">
          <mxGeometry relative="1" as="geometry">
            <mxPoint x="550" y="-115" as="sourcePoint" />
            <mxPoint x="710" y="-70" as="targetPoint" />
            <Array as="points">
              <mxPoint x="540" y="125" />
              <mxPoint x="540" y="145" />
            </Array>
          </mxGeometry>
        </mxCell>
        <mxCell id="dsP2pBHvKVDD0rXbexnV-75" style="edgeStyle=orthogonalEdgeStyle;rounded=0;orthogonalLoop=1;jettySize=auto;html=1;endArrow=none;endFill=0;exitX=1;exitY=0.25;exitDx=0;exitDy=0;entryX=1;entryY=0.5;entryDx=0;entryDy=0;entryPerimeter=0;" edge="1" parent="1" source="dsP2pBHvKVDD0rXbexnV-27" target="dsP2pBHvKVDD0rXbexnV-9">
          <mxGeometry relative="1" as="geometry">
            <mxPoint x="410" y="-15" as="sourcePoint" />
            <mxPoint x="540" y="-249" as="targetPoint" />
            <Array as="points">
              <mxPoint x="510" y="10" />
              <mxPoint x="580" y="10" />
              <mxPoint x="580" y="-60" />
              <mxPoint x="1130" y="-60" />
              <mxPoint x="1130" y="30" />
            </Array>
          </mxGeometry>
        </mxCell>
        <mxCell id="dsP2pBHvKVDD0rXbexnV-76" style="edgeStyle=orthogonalEdgeStyle;rounded=0;orthogonalLoop=1;jettySize=auto;html=1;endArrow=none;endFill=0;exitX=1.001;exitY=0.836;exitDx=0;exitDy=0;exitPerimeter=0;entryX=1;entryY=0.5;entryDx=0;entryDy=0;entryPerimeter=0;" edge="1" parent="1" source="dsP2pBHvKVDD0rXbexnV-27" target="dsP2pBHvKVDD0rXbexnV-49">
          <mxGeometry relative="1" as="geometry">
            <mxPoint x="500" y="-200" as="sourcePoint" />
            <mxPoint x="560" y="-200" as="targetPoint" />
            <Array as="points">
              <mxPoint x="540" y="24" />
              <mxPoint x="540" y="145" />
            </Array>
          </mxGeometry>
        </mxCell>
        <mxCell id="dsP2pBHvKVDD0rXbexnV-77" style="edgeStyle=orthogonalEdgeStyle;rounded=0;orthogonalLoop=1;jettySize=auto;html=1;endArrow=none;endFill=0;exitX=0.997;exitY=0.414;exitDx=0;exitDy=0;exitPerimeter=0;entryX=1;entryY=0.5;entryDx=0;entryDy=0;entryPerimeter=0;" edge="1" parent="1" source="dsP2pBHvKVDD0rXbexnV-27" target="dsP2pBHvKVDD0rXbexnV-44">
          <mxGeometry relative="1" as="geometry">
            <mxPoint x="500" y="-229" as="sourcePoint" />
            <mxPoint x="560" y="-229" as="targetPoint" />
            <Array as="points">
              <mxPoint x="560" y="-3" />
              <mxPoint x="560" y="-80" />
              <mxPoint x="840" y="-80" />
              <mxPoint x="840" y="25" />
            </Array>
          </mxGeometry>
        </mxCell>
        <mxCell id="dsP2pBHvKVDD0rXbexnV-78" style="edgeStyle=orthogonalEdgeStyle;rounded=0;orthogonalLoop=1;jettySize=auto;html=1;endArrow=none;endFill=0;exitX=1;exitY=0.155;exitDx=0;exitDy=0;exitPerimeter=0;entryX=1;entryY=0.5;entryDx=0;entryDy=0;entryPerimeter=0;" edge="1" parent="1" source="dsP2pBHvKVDD0rXbexnV-27" target="dsP2pBHvKVDD0rXbexnV-59">
          <mxGeometry relative="1" as="geometry">
            <mxPoint x="510" y="-219" as="sourcePoint" />
            <mxPoint x="570" y="-219" as="targetPoint" />
            <Array as="points">
              <mxPoint x="520" y="-20" />
              <mxPoint x="520" y="-100" />
              <mxPoint x="860" y="-100" />
              <mxPoint x="860" y="140" />
            </Array>
          </mxGeometry>
        </mxCell>
      </root>
    </mxGraphModel>
  </diagram>
</mxfile>
